<?xml version="1.0" encoding="utf-8"?>
<!-- Generator: Adobe Illustrator 27.5.0, SVG Export Plug-In . SVG Version: 6.00 Build 0)  -->
<svg version="1.1" xmlns="http://www.w3.org/2000/svg" xmlns:xlink="http://www.w3.org/1999/xlink" x="0px" y="0px"
	 viewBox="0 0 500 500" style="enable-background:new 0 0 500 500;" xml:space="preserve">
<g id="Floor">
	<path style="fill:#FAFAFA;" d="M106.416,407.4c83.785,43.77,219.628,43.771,303.412,0.001c83.786-43.771,83.786-114.736,0-158.506
		c-83.785-43.771-219.628-43.771-303.413-0.001C22.63,292.664,22.63,363.63,106.416,407.4z"/>
</g>
<g id="Shadow">
	<path style="fill:#F0F0F0;" d="M349.923,411.156c-11.978,5.709-31.397,5.709-43.376,0c-11.978-5.708-11.978-14.965,0-20.674
		c11.979-5.708,31.398-5.708,43.376,0C361.901,396.191,361.901,405.448,349.923,411.156z"/>
</g>
<g id="Screens_2">
	<g>
		<path style="fill:#F0F0F0;" d="M88.396,147.96v50.335c0,1.659,1.164,2.331,2.601,1.502l116.78-67.423
			c1.436-0.829,2.601-2.846,2.601-4.504V77.535c0-1.658-1.165-2.331-2.601-1.502l-116.78,67.423
			C89.56,144.286,88.396,146.302,88.396,147.96z"/>
		<path style="fill:#FAFAFA;" d="M96.532,147.209l34.992-20.203c1.601-0.924,2.899-0.175,2.899,1.674v35.172
			c0,1.848-1.298,4.096-2.899,5.021l-34.992,20.202c-1.601,0.924-2.898,0.175-2.899-1.674V152.23
			C93.633,150.381,94.931,148.133,96.532,147.209z"/>
		<path style="fill:#27DEBF;" d="M124.869,144.564l-10.404,21.579l-5.302-3.061c-1.067-0.617-2.433-0.251-3.049,0.817
			l-12.481,21.616v1.888c0,1.848,1.298,2.598,2.899,1.674l34.992-20.202c1.6-0.924,2.896-3.17,2.898-5.018v-12.356l-7.04-7.335
			C126.529,143.275,125.404,143.454,124.869,144.564z"/>
		<path style="fill:#27DEBF;" d="M98.886,160.079c4.104-2.369,7.431-8.131,7.431-12.87c0-2.167-0.701-3.735-1.848-4.583
			l-7.938,4.583c-1.601,0.924-2.899,3.173-2.899,5.021v8.37C94.978,161.376,96.835,161.264,98.886,160.079z"/>
		<path style="fill:#FAFAFA;" d="M147.488,121.076l52.59-30.364c1.197-0.691,2.168-0.2,2.168,1.097c0,1.296-0.971,2.908-2.168,3.599
			l-52.591,30.363c-1.197,0.691-2.167,0.2-2.167-1.097C145.321,123.378,146.291,121.767,147.488,121.076z"/>
		<path style="fill:#FAFAFA;" d="M147.488,131.468l52.59-30.363c1.197-0.691,2.168-0.2,2.168,1.096c0,1.297-0.971,2.907-2.168,3.599
			l-52.591,30.364c-1.197,0.691-2.167,0.2-2.167-1.096C145.321,133.77,146.291,132.159,147.488,131.468z"/>
		<path style="fill:#FAFAFA;" d="M147.488,141.86l52.59-30.364c1.197-0.691,2.168-0.2,2.168,1.096c0,1.297-0.971,2.908-2.168,3.599
			l-52.591,30.363c-1.197,0.691-2.167,0.2-2.167-1.096C145.321,144.162,146.291,142.55,147.488,141.86z"/>
		<path style="fill:#FAFAFA;" d="M147.488,152.252l52.59-30.363c1.197-0.691,2.167-0.2,2.167,1.096c0,1.297-0.97,2.908-2.167,3.599
			l-52.591,30.364c-1.197,0.691-2.167,0.2-2.167-1.096C145.321,154.554,146.291,152.943,147.488,152.252z"/>
	</g>
	<g>
		<path style="fill:#F0F0F0;" d="M64,306.261v-73.81c0-1.658,1.165-3.675,2.601-4.504l88.317-50.99
			c1.436-0.829,2.601-0.157,2.601,1.501v73.811c0,1.658-1.164,3.674-2.601,4.504l-88.317,50.99C65.165,308.593,64,307.92,64,306.261
			z"/>
		<path style="fill:#27DEBF;" d="M64,302.566v3.695c0,1.659,1.164,2.331,2.6,1.501l88.317-50.99c1.436-0.83,2.601-2.847,2.601-4.504
			v-3.696L64,302.566z"/>
		<path style="fill:#27DEBF;" d="M106.729,235.63l8.986-0.473c1.104-0.058,1.408,0.568,0.677,1.398l-10.342,11.762
			c-0.73,0.83-1.322,0.607-1.322-0.498l0.001-10.081C104.729,236.632,105.625,235.688,106.729,235.63z"/>
		<path style="fill:#27DEBF;" d="M104.415,254.77c-1.123,0-2.163-0.264-3.082-0.794c-2.221-1.283-3.445-3.957-3.445-7.532
			c0-7.225,5.09-16.041,11.347-19.653c3.096-1.788,6.024-2.063,8.245-0.783c2.221,1.283,3.445,3.958,3.445,7.533
			c0,7.224-5.091,16.04-11.347,19.652C107.764,254.241,106.006,254.77,104.415,254.77z M114.396,225.903
			c-1.47,0-3.11,0.499-4.817,1.485c-6.067,3.503-11.003,12.051-11.003,19.057c0,3.319,1.101,5.781,3.1,6.936
			c2,1.156,4.684,0.878,7.558-0.783c6.066-3.502,11.002-12.051,11.002-19.056c0-3.319-1.101-5.782-3.101-6.937
			C116.325,226.135,115.4,225.903,114.396,225.903z"/>
	</g>
</g>
<g id="Locator">
	<g>
		<g>
			<g id="XMLID_16478_">
				<path style="fill:#27DEBF;" d="M68.871,163.861l-5.476-3.145l-0.001,0.001c-2.614-1.749-6.243-1.674-10.256,0.643
					c-7.961,4.597-14.415,16.267-14.415,26.066v2.23c0,9.799,13.175,20.448,13.175,20.448l5.387,3.047c0,0-3.236-3.69-2.867-4.447
					c3.529-7.242,13.135-27.693,13.135-35.693v-2.23c0-1.788-0.217-3.388-0.617-4.785l0.618,0.356L68.871,163.861z M53.138,186.327
					c-3.98,2.298-7.207,0.435-7.208-4.161c2.143-0.337,7.53-9.534,7.208-12.483c3.98-2.298,7.207-0.435,7.208,4.161
					C60.345,178.44,57.118,184.029,53.138,186.327z"/>
			</g>
			<g id="XMLID_1_" style="opacity:0.2;">
				<path d="M68.871,163.861l-5.476-3.145l-0.001,0.001c-2.614-1.749-6.243-1.674-10.256,0.643
					c-7.961,4.597-14.415,16.267-14.415,26.066v2.23c0,9.799,13.175,20.448,13.175,20.448l5.387,3.047c0,0-3.236-3.69-2.867-4.447
					c3.529-7.242,13.135-27.693,13.135-35.693v-2.23c0-1.788-0.217-3.388-0.617-4.785l0.618,0.356L68.871,163.861z M53.138,186.327
					c-3.98,2.298-7.207,0.435-7.208-4.161c2.143-0.337,7.53-9.534,7.208-12.483c3.98-2.298,7.207-0.435,7.208,4.161
					C60.345,178.44,57.118,184.029,53.138,186.327z"/>
			</g>
		</g>
		<g id="XMLID_16280_">
			<path style="fill:#27DEBF;" d="M68.873,163.864c-0.064-0.04-0.128-0.08-0.191-0.112c-2.573-1.438-6.008-1.246-9.779,0.935
				c-5.705,3.299-10.634,10.218-12.967,17.48c0,0.008-0.008,0.016-0.008,0.024c-0.919,2.876-1.438,5.792-1.438,8.564v2.229
				c0,7.55,8.548,16.306,12.479,19.933c0.088,0.08,0.176,0.151,0.271,0.208c0.008,0.008,0.024,0.016,0.032,0.024
				c0.951,0.584,2.245,0.248,2.756-0.807c3.395-6.951,13.286-27.882,13.286-35.999v-2.237
				C73.315,169.073,71.614,165.51,68.873,163.864z M51.825,186.944c-0.088-0.447-0.128-0.927-0.128-1.446
				c0-4.602,3.227-10.186,7.206-12.487c0.447-0.263,0.887-0.463,1.31-0.623c3.355-1.222,5.896,0.711,5.896,4.786
				c0,4.594-3.228,10.186-7.206,12.479C55.372,191.698,52.432,190.46,51.825,186.944z"/>
		</g>
		<g>
			<g id="XMLID_16562_">
				<path style="fill:#27DEBF;" d="M66.109,177.174c0,4.594-3.228,10.186-7.206,12.479c-3.531,2.045-6.472,0.807-7.079-2.708
					c0.423-0.152,0.863-0.359,1.311-0.615c3.986-2.301,7.206-7.894,7.206-12.487c0-0.519-0.04-1.006-0.128-1.454
					C63.569,171.166,66.109,173.1,66.109,177.174z"/>
			</g>
			<g id="XMLID_4_" style="opacity:0.2;">
				<path d="M66.109,177.174c0,4.594-3.228,10.186-7.206,12.479c-3.531,2.045-6.472,0.807-7.079-2.708
					c0.423-0.152,0.863-0.359,1.311-0.615c3.986-2.301,7.206-7.894,7.206-12.487c0-0.519-0.04-1.006-0.128-1.454
					C63.569,171.166,66.109,173.1,66.109,177.174z"/>
			</g>
		</g>
	</g>
</g>
<g id="Plants">
	<g>
		<g>
			<path style="fill:#27DEBF;" d="M171.181,301.331c0,0,3.605-22.958-4.406-42.778c-8.011-19.821-18.836-21.024-24.434-18.197
				c-5.598,2.827-1.965,13.788,3.045,21.159c6.568,9.662,17.65,30.491,17.25,49.184L171.181,301.331z"/>
			<path style="opacity:0.2;" d="M171.181,301.331c0,0,3.605-22.958-4.406-42.778c-8.011-19.821-18.836-21.024-24.434-18.197
				c-5.598,2.827-1.965,13.788,3.045,21.159c6.568,9.662,17.65,30.491,17.25,49.184L171.181,301.331z"/>
		</g>
		<path style="fill:#FFFFFF;" d="M167.576,302.793c-0.01,0-0.02,0-0.029,0c-0.375-0.016-0.667-0.333-0.65-0.708
			c1.326-31.49-14.409-55.059-21.195-59.583c-0.312-0.208-0.396-0.63-0.188-0.942c0.209-0.314,0.63-0.399,0.943-0.189
			c8.004,5.335,23.121,29.376,21.798,60.771C168.24,302.508,167.938,302.793,167.576,302.793z"/>
		<path style="fill:#27DEBF;" d="M169.757,328.641c-1.367-3.443-4.902-7.28-14.04-11.385c-9.138-4.105-15.927-9.566-17.191-13.527
			c-1.264-3.961,1.618-6.306,1.618-6.306s-8.571-1.004-9.649-6.253c-1.359-6.615,6.134-7.05,6.134-7.05s-9.827-13.844-12.442-20.044
			c-2.615-6.2,0.406-6.522,6.741-4.178c6.334,2.346,18.424,14.185,20.295,17.795c0,0,3.266-4.036,6.784-1.378
			c3.519,2.659,3.693,10.507,1.612,13.342c0,0,4.239-1.11,7.433,3.075c3.579,4.691,4.757,16.416,4.757,16.416L169.757,328.641z"/>
		<path style="fill:#FFFFFF;" d="M170.404,325.439c-0.307,0-0.586-0.209-0.661-0.521c-4.865-20.246-27.936-52.57-42.267-62.851
			c-0.305-0.219-0.375-0.644-0.156-0.949c0.22-0.305,0.645-0.375,0.949-0.156c14.511,10.409,37.871,43.139,42.796,63.638
			c0.088,0.365-0.137,0.732-0.502,0.82C170.51,325.433,170.457,325.439,170.404,325.439z"/>
	</g>
</g>
<g id="Screen_1">
	<g>
		<g>
			<path style="fill:#FFFFFF;" d="M351.413,121.527c-0.115,0-0.232-0.029-0.339-0.091l-2.811-1.624
				c-0.325-0.188-0.436-0.603-0.249-0.929c0.188-0.325,0.606-0.436,0.929-0.249l2.811,1.623c0.325,0.188,0.437,0.604,0.249,0.929
				C351.877,121.405,351.648,121.527,351.413,121.527z"/>
			<path style="fill:#455A64;" d="M169.757,180.816v148.785c0,1.656,1.164,2.328,2.598,1.5l173.535-100.19
				c1.435-0.829,2.598-2.843,2.598-4.5V77.627c0-1.657-1.163-2.329-2.598-1.5L172.355,176.316
				C170.92,177.145,169.757,179.16,169.757,180.816z"/>
			<path style="fill:#F5F5F5;" d="M190.067,208.304c0,5.181,3.877,7.143,8.66,4.381l137.573-79.428v-18.762l-137.573,79.428
				C193.945,196.685,190.067,203.124,190.067,208.304z"/>
			<path style="fill:#27DEBF;" d="M347.95,107.77c4.783-2.761,8.66-0.8,8.66,4.381c0,5.181-3.877,11.62-8.66,14.381l-11.649,6.726
				v-18.762L347.95,107.77z"/>
			<path style="fill:#FFFFFF;" d="M343.799,123.584c-0.514,0-0.994-0.123-1.423-0.371c-1.006-0.581-1.56-1.747-1.56-3.284
				c0-2.915,1.978-6.341,4.503-7.798c1.332-0.768,2.617-0.872,3.623-0.292c1.005,0.581,1.559,1.747,1.559,3.284
				c0,2.916-1.978,6.341-4.502,7.798C345.236,123.361,344.488,123.584,343.799,123.584z M347.515,112.829
				c-0.448,0-0.965,0.161-1.516,0.479c-2.072,1.196-3.823,4.229-3.823,6.621c0,1.031,0.313,1.779,0.88,2.106
				c0.566,0.328,1.372,0.223,2.264-0.291c2.071-1.196,3.822-4.228,3.822-6.621c0-1.031-0.313-1.779-0.879-2.106
				C348.045,112.891,347.793,112.829,347.515,112.829z"/>
			<g>
				<path style="fill:#27DEBF;" d="M349.951,148.829l-132.913,76.738c-1.435,0.828-2.598,2.843-2.598,4.499v40.905
					c0,1.657,1.163,2.328,2.598,1.5l132.913-76.737c1.434-0.829,2.598-2.843,2.598-4.5v-40.905
					C352.549,148.672,351.386,148.001,349.951,148.829z"/>
				<path style="opacity:0.2;fill:#FFFFFF;" d="M349.951,148.829l-132.913,76.738c-1.435,0.828-2.598,2.843-2.598,4.499v40.905
					c0,1.657,1.163,2.328,2.598,1.5l132.913-76.737c1.434-0.829,2.598-2.843,2.598-4.5v-40.905
					C352.549,148.672,351.386,148.001,349.951,148.829z"/>
			</g>
			<path style="fill:#FFFFFF;" d="M265.35,204.477l24.104-13.916c1.196-0.691,2.165-0.2,2.165,1.095
				c0,1.295-0.969,2.905-2.165,3.595l-24.104,13.917c-1.196,0.69-2.165,0.2-2.165-1.095
				C263.185,206.777,264.153,205.167,265.35,204.477z"/>
			<path style="fill:#FFFFFF;" d="M263.185,217.453c0,1.295,0.969,1.786,2.165,1.095l72.849-42.059
				c1.195-0.691,2.165-2.3,2.165-3.595c0-1.295-0.97-1.786-2.165-1.095l-72.849,42.059
				C264.153,214.548,263.185,216.158,263.185,217.453z"/>
			<path style="fill:#FFFFFF;" d="M263.185,226.833c0,1.295,0.969,1.786,2.165,1.095l72.849-42.059
				c1.195-0.69,2.165-2.3,2.165-3.595c0-1.295-0.97-1.786-2.165-1.095l-72.849,42.059
				C264.153,223.928,263.185,225.538,263.185,226.833z"/>
			<path style="fill:#FFFFFF;" d="M263.185,236.212c0,1.295,0.969,1.785,2.165,1.095l72.849-42.059
				c1.195-0.69,2.165-2.3,2.165-3.596c0-1.295-0.97-1.785-2.165-1.095l-72.849,42.059
				C264.153,233.307,263.185,234.917,263.185,236.212z"/>
			<path style="fill:#FFFFFF;" d="M221.1,227.912l31.362-18.107c1.436-0.829,2.599-0.157,2.599,1.5v31.523
				c0,1.657-1.163,3.671-2.599,4.5L221.1,265.435c-1.435,0.829-2.598,0.157-2.598-1.499v-31.524
				C218.502,230.754,219.665,228.74,221.1,227.912z"/>
			<path style="fill:#27DEBF;" d="M246.497,225.541l-9.324,19.34l-4.752-2.744c-0.956-0.552-2.18-0.225-2.732,0.732l-11.186,19.374
				v1.691c0,1.657,1.163,2.329,2.598,1.5l31.361-18.107c1.435-0.828,2.597-2.841,2.598-4.497v-11.075l-6.309-6.574
				C247.986,224.386,246.977,224.546,246.497,225.541z"/>
			<path style="fill:#27DEBF;" d="M223.21,239.446c3.678-2.123,6.66-7.288,6.66-11.535c0-1.942-0.628-3.348-1.656-4.107
				l-7.114,4.107c-1.435,0.829-2.598,2.843-2.598,4.5v7.502C219.707,240.608,221.372,240.508,223.21,239.446z"/>
			<g>
				<path style="fill:#27DEBF;" d="M349.951,209.805l-132.913,76.737c-1.435,0.828-2.598,2.843-2.598,4.5v40.904
					c0,1.657,1.163,2.328,2.598,1.5l132.913-76.737c1.434-0.828,2.598-2.843,2.598-4.5v-40.904
					C352.549,209.648,351.386,208.976,349.951,209.805z"/>
				<path style="opacity:0.2;fill:#FFFFFF;" d="M349.951,209.805l-132.913,76.737c-1.435,0.828-2.598,2.843-2.598,4.5v40.904
					c0,1.657,1.163,2.328,2.598,1.5l132.913-76.737c1.434-0.828,2.598-2.843,2.598-4.5v-40.904
					C352.549,209.648,351.386,208.976,349.951,209.805z"/>
			</g>
			<path style="fill:#FFFFFF;" d="M265.35,265.452l24.104-13.916c1.196-0.69,2.165-0.2,2.165,1.095c0,1.296-0.969,2.905-2.165,3.596
				l-24.104,13.916c-1.196,0.69-2.165,0.2-2.165-1.095C263.185,267.752,264.153,266.143,265.35,265.452z"/>
			<path style="fill:#FFFFFF;" d="M263.185,278.429c0,1.295,0.969,1.785,2.165,1.095l72.849-42.059
				c1.195-0.69,2.165-2.3,2.165-3.595c0-1.295-0.97-1.785-2.165-1.095l-72.849,42.059
				C264.153,275.523,263.185,277.133,263.185,278.429z"/>
			<path style="fill:#FFFFFF;" d="M263.185,287.809c0,1.295,0.969,1.785,2.165,1.095l72.849-42.059
				c1.195-0.69,2.165-2.3,2.165-3.595c0-1.295-0.97-1.786-2.165-1.095l-72.849,42.059
				C264.153,284.903,263.185,286.514,263.185,287.809z"/>
			<path style="fill:#FFFFFF;" d="M263.185,297.188c0,1.295,0.969,1.785,2.165,1.095l72.849-42.059
				c1.195-0.69,2.165-2.3,2.165-3.596c0-1.295-0.97-1.785-2.165-1.095l-72.849,42.059
				C264.153,294.282,263.185,295.893,263.185,297.188z"/>
			<path style="fill:#FFFFFF;" d="M221.1,288.887l31.362-18.106c1.436-0.828,2.599-0.157,2.599,1.5v31.523
				c0,1.657-1.163,3.672-2.599,4.5L221.1,326.411c-1.435,0.828-2.598,0.156-2.598-1.5v-31.524
				C218.502,291.73,219.665,289.716,221.1,288.887z"/>
			<path style="fill:#27DEBF;" d="M246.497,286.517l-9.324,19.341l-4.752-2.744c-0.956-0.552-2.18-0.225-2.732,0.732l-11.186,19.373
				v1.692c0,1.656,1.163,2.328,2.598,1.5l31.361-18.107c1.435-0.828,2.597-2.841,2.598-4.497v-11.074l-6.309-6.574
				C247.986,285.361,246.977,285.522,246.497,286.517z"/>
			<path style="fill:#27DEBF;" d="M223.21,300.422c3.678-2.123,6.66-7.287,6.66-11.534c0-1.942-0.628-3.348-1.656-4.108
				l-7.114,4.107c-1.435,0.829-2.598,2.844-2.598,4.5v7.502C219.707,301.584,221.372,301.483,223.21,300.422z"/>
			<path style="fill:#27DEBF;" d="M348.487,84.007v-6.38c0-1.657-1.163-2.329-2.599-1.5L172.355,176.316
				c-1.435,0.829-2.598,2.843-2.598,4.5v6.381L348.487,84.007z"/>
		</g>
		<g id="XMLID_16738_">
			<path style="fill:#F5F5F5;" d="M327.204,89.364c-1.065,0.615-1.927,2.109-1.927,3.337c0,1.229,0.862,1.728,1.927,1.113
				c1.064-0.615,1.927-2.108,1.927-3.337C329.131,89.248,328.269,88.75,327.204,89.364z"/>
		</g>
		<g id="XMLID_16737_">
			<path style="fill:#F5F5F5;" d="M334.851,84.95c-1.064,0.614-1.927,2.109-1.927,3.337c0,1.229,0.862,1.727,1.927,1.113
				c1.064-0.615,1.927-2.108,1.927-3.337S335.915,84.335,334.851,84.95z"/>
		</g>
		<g id="XMLID_16736_">
			<path style="fill:#F5F5F5;" d="M342.498,80.535c-1.064,0.615-1.928,2.109-1.928,3.337c0,1.229,0.863,1.727,1.928,1.113
				c1.064-0.615,1.927-2.109,1.927-3.338C344.425,80.419,343.561,79.921,342.498,80.535z"/>
		</g>
	</g>
</g>
<g id="Character">
	<g>
		<g id="XMLID_33_">
			<g id="XMLID_34_">
				<path style="fill:#263238;" d="M351.264,394.223c0.279,0.371,0.33,1.229,0.614,2.391c0.284,1.16,0.38,2.06,0.19,2.628
					c-0.19,0.568-1.439,1.847-2.969,2.32c-1.53,0.474-3.412,0.076-5.234-1.014c-1.822-1.089-3.197-2.413-5.792-3.151
					c-2.596-0.739-3.893-1.339-5.123-2.325c-1.439-1.155-3.36-4.349-0.608-5.087c2.776-0.745,8.741,1.87,14.185,2.107
					L351.264,394.223z"/>
			</g>
		</g>
		<g id="XMLID_30_">
			<path style="fill:#F28F8F;" d="M351.009,390.623c0,0,0.323,3.821,0.324,4.283c0.005,1.294-4.76,3.02-5.646,0l-0.756-4.059
				L351.009,390.623z"/>
		</g>
		<path style="fill:#37474F;" d="M345.163,306.808c1.65,2.568,3.257,4.973,4.49,7.48c0,0,0.471,5.563,0.471,9.263
			c0,6.802-1.058,12.055-2.023,25.45c0,0,2.228,3.318,2.582,8.66c0.402,6.069,0.407,6.029,0.447,33.999c0,0-2.514,1.582-5.957,0.582
			l-9.03-39.212l-0.982-15.387l-2.82-19.131L345.163,306.808z"/>
		<g id="XMLID_28_">
			<g id="XMLID_29_">
				<path style="fill:#263238;" d="M323.857,401.228c0.324,0.335,0.214,0.963,0.358,2.101c0.151,1.185,0.25,1.982,0.133,2.57
					c-0.118,0.587-1.197,2.011-2.656,2.671c-1.46,0.66-3.377,0.501-5.32-0.354c-1.943-0.853-3.473-1.997-6.14-2.406
					c-2.667-0.41-4.029-0.844-5.372-1.67c-1.571-0.967-3.876-3.896-1.236-4.972c2.661-1.084,9.252,0.87,14.685,0.428
					L323.857,401.228z"/>
			</g>
		</g>
		<g id="XMLID_27_">
			<path style="fill:#F28F8F;" d="M325.11,396.43c0,0-1.023,4.357-1.271,5.328c-0.597,2.335-5.772,2.453-5.772-0.24l0.348-6.195
				L325.11,396.43z"/>
		</g>
		<path style="fill:#37474F;" d="M333.486,307.954c2.593,5.081,5.091,9.578,5.177,15.007c0.184,11.465-4.573,24.097-6.323,32.387
			c0,0,0.879,4.671,0.436,9.095c-0.348,3.463-8.259,34.98-8.259,34.98s-4.397,0.914-6.272-1.069l2.228-60.709l0.597-17.638
			L333.486,307.954z"/>
		<g id="XMLID_26_">
			<polygon style="fill:#FFA8A7;" points="329.927,276.912 331.565,285.936 339.717,285.341 338.006,275.111 			"/>
		</g>
		<g id="XMLID_25_">
			<path style="fill:#455A64;" d="M348.326,284.682c-0.808-2.453-3.92-5.124-7.035-4.546c-5.723,1.063-10.262,2.2-13.642,3.407
				c-2.852,1.018-5.449,3.483-5.685,12.864l-0.895,23.6c0,0,1.483,1.502,4.306,2.278c4.339,1.193,7.19,1.901,13.776,0.462
				c8.57-1.872,10.61-7.061,10.61-7.061s-0.33-12.487-0.587-19.279C348.956,290.637,348.88,286.366,348.326,284.682z"/>
		</g>
		<path style="fill:#263238;" d="M326.448,265.382l-41.546-11.273c-3.758-0.644-5.329,8.527-1.572,9.171l42.709,4.315
			L326.448,265.382z"/>
		<path style="fill:#FFA8A7;" d="M314.501,284.422l-8.492,0.259c0,0,1.282-12.634,2.069-14.286c0.787-1.652,2.685-1.997,4.558-2.535
			c1.873-0.538,1.879-1.429,1.879-1.429l-1.693-0.171c-1.482-0.15-2.067-2.003-1.427-3.247c0.301-0.584,0.803-1.499,1.703-1.254
			c0.9,0.244,2.241,0.608,2.241,0.608s0.027-1.992-0.71-2.813c-0.746-0.83-1.253-0.575-2.745-1.092
			c-1.114-0.387-3.38-1.081-5.214-0.327c-1.834,0.753-3.225,4.185-3.686,6.614c-0.461,2.43-0.665,3.699-2.301,8.206
			c-1.635,4.506-4.03,13.741-4.256,17.449c-0.104,1.707,0.055,2.722,1.956,3.176c1.901,0.453,15.873,0.481,15.873,0.481
			L314.501,284.422z"/>
		<g id="XMLID_24_">
			<path style="fill:#FFA8A7;" d="M323.892,266.219c0,0-1.974,2.923-1.723,3.236c0.251,0.313,1.484,0.656,1.484,0.656
				L323.892,266.219z"/>
		</g>
		<g id="XMLID_23_">
			<path style="fill:#FFA8A7;" d="M329.925,256.956c-1.9,0.959-5.185,2.733-6.093,9.691c-0.931,7.143,0.295,9.445,1.261,10.392
				c0.652,0.639,4.198,0.678,5.975,0.145c2.223-0.667,7.237-2.572,9.523-6.242c2.689-4.317,3.291-10.1,0.256-12.397
				C336.576,255.309,331.533,256.144,329.925,256.956z"/>
		</g>
		<path style="fill:#263238;" d="M335.506,343.172l4.332-12.244c0,0,5.254-1.688,8.75-5.836c0,0-0.966,3.491-7.84,7.067L336,343.744
			l-0.039,6.44L335.506,343.172z"/>
		<g id="XMLID_21_">
			<g id="XMLID_22_">
				<path style="fill:#263238;" d="M323.438,259.349c0.626,1.714,1.677,5.907,6.053,7.66c0,0,0.625-2.673,2.872-2.39
					c2.262,0.285,2.631,3.152,1.25,4.93c-1.382,1.778-2.722,1.139-2.722,1.139s-0.301,3.834,2.259,5.571
					c0,0,3.088,1.957,6.361,0.453c1.473-0.676,3.555-4.203,4.777-7.098c2.586-6.123,2.955-11.033-0.952-12.581
					c-0.481-2.784-1.732-3.83-4.253-4.349c-5.424-1.118-9.523,2.445-14.074,1.816C322.635,254.173,322.723,257.391,323.438,259.349z
					"/>
			</g>
		</g>
		<g id="XMLID_19_">
			<g id="XMLID_20_">
				<path style="fill:#263238;" d="M343.424,257.967l2.557-1.586c-0.438-0.706-1.365-0.923-2.071-0.485
					C343.203,256.333,342.985,257.261,343.424,257.967z"/>
			</g>
		</g>
		<path style="fill:#455A64;" d="M312.596,284.245c0,0,11.95-0.684,15.054-0.702c3.105-0.019,6.294,5.184,4.387,8.733
			c-1.256,2.337-5.182,3.136-10.133,3.375c-4.912,0.237-9.948,0.237-9.948,0.237S307.461,290.816,312.596,284.245z"/>
		<path style="fill:#37474F;" d="M321.988,295.647c0,0,7.574-0.098,10.048-3.371c0,0-0.577,1.964-3.514,3.233
			c-2.889,1.25-6.578,1.416-6.578,1.416L321.988,295.647z"/>
		<path style="fill:#455A64;" d="M284.902,254.108c-3.758-0.644-5.329,8.527-1.572,9.171l5.958,0.602
			c-2.44-0.247-0.745-8.784,1.116-8.279l0,0L284.902,254.108z"/>
	</g>
</g>
<g id="Magnifiyng_Glass">
	<g>
		<path style="fill:#455A64;" d="M436.223,251.658c0,5.11-4.15,9.26-9.26,9.26c-2.68,0-5.1-1.14-6.79-2.96l-0.61-0.739
			c-0.01-0.011-0.02-0.011-0.02-0.021c-1.15-1.55-1.84-3.47-1.84-5.54c0-5.11,4.149-9.26,9.26-9.26c2.67,0,5.09,1.14,6.78,2.95
			l0.63,0.76c0.01,0,0.01,0.01,0.01,0.01C435.533,247.669,436.223,249.588,436.223,251.658z"/>
		<path style="fill:#455A64;" d="M436.223,251.658c0,5.11-4.15,9.26-9.26,9.26c-2.68,0-5.1-1.14-6.79-2.96l-0.61-0.739
			c-0.01-0.011-0.02-0.011-0.02-0.021l-38.56-46.55l16.25-9.38l36.51,44.08l0.63,0.76c0.01,0,0.01,0.01,0.01,0.01
			C435.533,247.669,436.223,249.588,436.223,251.658z"/>
		<path style="fill:#27DEBF;" d="M404.316,238.81c1.69,1.82,4.109,2.96,6.79,2.96c5.109,0,9.26-4.15,9.26-9.26
			c0-2.07-0.69-3.99-1.84-5.54c0,0,0-0.01-0.011-0.01l-4.768-5.748c0.011,0,0.011,0.01,0.011,0.01c1.149,1.55,1.84,3.47,1.84,5.54
			c0,5.11-4.15,9.26-9.26,9.26c-2.681,0-5.101-1.14-6.79-2.96L404.316,238.81z"/>
		<path style="fill:#263238;" d="M396.631,128.063c3.021,0.357,5.791,1.259,8.27,2.69l-11.732-6.824l0,0
			c-7.871-5.407-19.201-5.088-31.79,2.173c-23.773,13.728-43.054,47.122-43.054,74.579c-0.014,13.49,4.599,23.128,12.165,27.713
			l0.164,0.094l12.52,7.216c-2.174-1.405-4.095-3.22-5.712-5.433c2.876,0.344,5.964,0.172,9.224-0.53
			c1.1-0.239,2.213-0.53,3.339-0.888c-0.146-0.053-0.291-0.106-0.424-0.172c-0.597-0.278-1.18-0.596-1.723-0.98
			c-0.954-0.663-1.815-1.484-2.598-2.465c-0.967-1.206-1.775-2.624-2.438-4.241c-0.849,0.12-1.67,0.172-2.465,0.172
			c-2.134,0-4.002-0.371-5.659-1.127c-0.424-0.186-0.821-0.411-1.205-0.649c-0.358-0.226-0.703-0.478-1.047-0.742
			c-0.689-3.114-1.047-6.546-1.047-10.296c0-27.457,19.28-60.851,43.067-74.58c3.299-1.908,6.52-3.326,9.606-4.307
			c0.901,0.371,1.75,0.861,2.519,1.458c0.795,0.609,1.523,1.325,2.186,2.16c0.967,1.206,1.775,2.637,2.451,4.254
			c0.848-0.119,1.67-0.172,2.465-0.172c2.491,0,4.638,0.517,6.479,1.577c0.504,0.265,0.98,0.583,1.432,0.94
			c-0.173-0.808-0.371-1.59-0.597-2.345C400.023,133.734,398.526,130.633,396.631,128.063z"/>
		<g>
			<path style="fill:#455A64;" d="M404.9,130.752c-0.226-0.133-0.451-0.252-0.677-0.371c-2.306-1.219-4.836-1.988-7.593-2.319
				c-2.663-0.318-5.525-0.199-8.534,0.384c-1.311,0.251-2.637,0.596-4.002,1.02c-3.087,0.981-6.308,2.398-9.606,4.307
				c-23.787,13.729-43.067,47.123-43.067,74.58c0,3.75,0.357,7.182,1.047,10.296c0.132,0.609,0.278,1.192,0.437,1.775
				c1.02,3.843,2.571,7.143,4.559,9.846c0.968,1.338,2.055,2.518,3.247,3.564c0.781,0.689,1.603,1.312,2.465,1.869
				c7.845,5.062,18.963,4.624,31.3-2.492c23.786-13.729,43.067-47.122,43.067-74.579C417.542,144.878,412.705,135.231,404.9,130.752
				z M400.195,138.743c0.504,0.265,0.98,0.583,1.432,0.94c0.742,0.584,1.418,1.273,2.054,2.054
				c2.995,3.763,4.585,9.607,4.585,16.896c0,24.038-17.598,54.517-38.429,66.549c-5.248,3.035-10.297,4.638-14.59,4.638
				c-1.948,0-3.671-0.318-5.222-0.967c-0.146-0.053-0.291-0.106-0.424-0.172c-0.597-0.278-1.18-0.596-1.723-0.98
				c-0.663-0.464-1.285-1.007-1.855-1.617h-0.013c-0.252-0.265-0.49-0.557-0.729-0.848c-0.967-1.206-1.775-2.624-2.438-4.241
				c-1.418-3.419-2.147-7.699-2.147-12.642c0-0.318,0-0.636,0.026-0.967c0.438-23.893,17.85-53.722,38.403-65.581
				c0.476-0.278,0.954-0.544,1.431-0.795c3.764-2.001,7.395-3.247,10.694-3.67c0.848-0.119,1.67-0.172,2.465-0.172
				c1.935,0,3.657,0.318,5.194,0.954C399.36,138.292,399.785,138.504,400.195,138.743z"/>
		</g>
		<path style="fill:#37474F;" d="M408.266,158.633c0,24.038-17.598,54.517-38.429,66.549c-1.313,0.755-2.611,1.431-3.896,2.001
			c0,0-0.013,0.013-0.026,0.013c-3.816,1.723-7.461,2.624-10.667,2.624c-1.948,0-3.671-0.318-5.222-0.967
			c-0.146-0.053-0.291-0.106-0.424-0.172c-0.597-0.278-1.18-0.596-1.723-0.98c-0.954-0.663-1.815-1.484-2.598-2.465
			c-0.265-0.345-0.529-0.689-0.769-1.073c0.464,0.04,0.954,0.066,1.458,0.066c4.293,0,9.342-1.604,14.59-4.638
			c20.831-12.033,38.43-42.511,38.43-66.549c0-6.613-1.313-12.033-3.804-15.796c1.882,0.145,3.538,0.649,5.009,1.498
			c0.504,0.265,0.98,0.583,1.432,0.94c0.742,0.584,1.418,1.273,2.054,2.054c2.638,3.313,4.188,8.229,4.506,14.325
			C408.239,156.898,408.266,157.759,408.266,158.633z"/>
		<path style="opacity:0.6;fill:#FFFFFF;" d="M404.251,155.864c0,24.038-17.599,54.517-38.43,66.549
			c-5.247,3.035-10.296,4.638-14.59,4.638c-1.948,0-3.657-0.318-5.208-0.967h-0.013c-0.252-0.265-0.49-0.557-0.729-0.848
			c-0.967-1.206-1.775-2.624-2.438-4.241c-1.418-3.419-2.147-7.699-2.147-12.642c0-0.318,0-0.636,0.026-0.967
			c0.438-23.893,17.85-53.722,38.403-65.581c0.476-0.278,0.954-0.544,1.431-0.795c3.764-2.001,7.395-3.247,10.694-3.67
			c0.848-0.119,1.67-0.172,2.465-0.172c1.935,0,3.657,0.318,5.194,0.954c0.266,0.265,0.517,0.557,0.756,0.848
			C402.66,142.731,404.251,148.576,404.251,155.864z"/>
	</g>
</g>
</svg>
